<svg xmlns="http://www.w3.org/2000/svg" version="1.1" xmlns:xlink="http://www.w3.org/1999/xlink" width="512" height="512" x="0" y="0" viewBox="0 0 512 512" style="enable-background:new 0 0 512 512" xml:space="preserve"><g><linearGradient id="a" x1="256" x2="256" y1="512.003" y2=".003" gradientUnits="userSpaceOnUse"><stop stop-opacity="1" stop-color="#a230d2" offset="0"></stop><stop stop-opacity="1" stop-color="#c72a97" offset="1"></stop></linearGradient><path fill="url(#a)" fill-rule="evenodd" d="M440.1 409.793c-21.831-11.085-48.925-20.161-79.169-26.5a167.013 167.013 0 0 1-4.016 3.2c-12.753 47.893-31.689 84-54.116 104.909a240.158 240.158 0 0 0 137.3-81.616zm-230.894 81.616C186.779 470.5 167.842 434.393 155.09 386.5a172.115 172.115 0 0 1-4.015-3.2c-30.245 6.335-57.339 15.411-79.17 26.5a240.184 240.184 0 0 0 137.3 81.616zm-137.3-389.2c21.831 11.09 48.925 20.161 79.17 26.5a165.009 165.009 0 0 1 4.015-3.2c12.752-47.893 31.689-84 54.116-104.908a240.156 240.156 0 0 0-137.3 81.615zM495.853 248a238.646 238.646 0 0 0-45.741-132.966c-20.925 10.991-46.484 20.156-74.954 26.9A164.473 164.473 0 0 1 420.84 248zM375.158 370.07A164.484 164.484 0 0 0 420.84 264h75.013a238.646 238.646 0 0 1-45.741 132.966c-20.925-10.991-46.484-20.161-74.954-26.9zM16.149 264H91.16a164.48 164.48 0 0 0 45.683 106.07c-28.471 6.736-54.028 15.906-74.955 26.9A238.621 238.621 0 0 1 16.149 264zm120.694-122.068A164.469 164.469 0 0 0 91.16 248H16.149a238.621 238.621 0 0 1 45.739-132.965c20.927 10.991 46.484 20.156 74.955 26.9zm102.04-50.082a163 163 0 0 0-63.083 19.859C194.994 52.142 224.868 16 256 16s61.013 36.147 80.2 95.71a163.024 163.024 0 0 0-63.127-19.863c-.09-.01-.178-.024-.269-.034-.956-.094-1.914-.174-2.874-.254q-1.053-.093-2.108-.165c-.774-.057-1.548-.1-2.323-.147-.964-.056-1.93-.1-2.9-.136-.6-.024-1.2-.052-1.8-.071-1.6-.047-3.2-.076-4.809-.076s-3.214.029-4.811.076c-.6.019-1.193.047-1.789.071-.971.037-1.94.08-2.9.136-.774.043-1.544.09-2.315.147-.709.047-1.418.108-2.124.165-.955.08-1.908.16-2.858.254-.1.015-.212.024-.317.038zm34.236 328.307a163.092 163.092 0 0 0 63.081-19.864C317.006 459.86 287.132 496 256 496s-61.007-36.143-80.2-95.71a163.091 163.091 0 0 0 63.081 19.864c.1.009.212.023.317.033.95.094 1.9.174 2.858.254q1.059.085 2.124.165c.771.057 1.541.1 2.315.147.964.056 1.933.1 2.9.141.6.019 1.192.047 1.789.066 1.6.047 3.2.076 4.811.076s3.212-.029 4.809-.076c.6-.019 1.192-.047 1.789-.066a192.91 192.91 0 0 0 2.9-.141c.774-.043 1.544-.09 2.315-.147q1.067-.078 2.124-.165c.955-.08 1.907-.16 2.858-.254.107-.01.212-.024.319-.033zM302.8 20.6a240.187 240.187 0 0 1 137.3 81.6c-21.831 11.1-48.925 20.166-79.169 26.5a164.857 164.857 0 0 0-4.012-3.2c-12.749-47.9-31.688-84-54.116-104.909zM512 256c0 141.16-114.841 256-256 256S0 397.161 0 256 114.841 0 256 0s256 114.841 256 256zm-183.641 32.073h-125.4l25.754-25.756a8 8 0 0 0-11.314-11.311l-39.41 39.406a8 8 0 0 0 0 11.317l39.41 39.407a8 8 0 0 0 11.314-11.312l-25.754-25.751h125.4a8 8 0 1 0 0-16zm5.657-77.8-39.41-39.411a8 8 0 1 0-11.314 11.316l25.752 25.756h-125.4a8 8 0 1 0 0 16h125.4l-25.752 25.756A8 8 0 1 0 294.606 261l39.41-39.406a8 8 0 0 0 0-11.321z" opacity="1" data-original="url(#a)"></path></g></svg>